<svg data-v-0dd9719b="" version="1.0" xmlns="http://www.w3.org/2000/svg" xmlns:xlink="http://www.w3.org/1999/xlink" width="100%" height="100%" viewBox="0 0 340.000000 250.000000" preserveAspectRatio="xMidYMid meet" color-interpolation-filters="sRGB" style="margin: auto;"> <rect data-v-0dd9719b="" x="0" y="0" width="100%" height="100%" fill="#fff" fill-opacity="1" class="background"></rect> <rect data-v-0dd9719b="" x="0" y="0" width="100%" height="100%" fill="url(#watermark)" fill-opacity="1" class="watermarklayer"></rect> <g data-v-0dd9719b="" fill="#333" class="icon-text-wrapper icon-svg-group iconsvg" transform="translate(78.39990997314453,88.82200622558594)"><g class="iconsvg-imagesvg" transform="translate(0,3.637561798095703)"><g><rect fill="#333" fill-opacity="0" stroke-width="2" x="0" y="0" width="60" height="65.08086297224301" class="image-rect"></rect> <svg x="0" y="0" width="60" height="65.08086297224301" filtersec="colorsb7280329945" class="image-svg-svg primary" style="overflow: visible;"><svg xmlns="http://www.w3.org/2000/svg" viewBox="-0.0015622725477442145 -0.000027662112188409083 92.19300079345703 100.00003051757812"><path d="M76.57 55.43l-36.23-36L22 1.2A14.48 14.48 0 0 0 16.2 0C7.37 0 .19 8.1 0 18.16v43.47a18.67 18.67 0 0 0 18.43 18.91H69.2a17.86 17.86 0 0 0 10-15.92 17.4 17.4 0 0 0-2.63-9.19z" fill="#e62c5a" opacity=".8"></path><path d="M73.76 19.46H23a17.86 17.86 0 0 0-10 15.92 17.46 17.46 0 0 0 2.61 9.2l36.23 36L70.23 98.8A14.52 14.52 0 0 0 76 100c8.82 0 16-8.09 16.19-18.15V38.36a18.67 18.67 0 0 0-18.43-18.9z" fill="#0fabf6" opacity=".8"></path><path d="M15.61 44.58l36.23 36H69.2a17.86 17.86 0 0 0 10-15.92 17.4 17.4 0 0 0-2.62-9.19l-36.23-36H23a17.86 17.86 0 0 0-10 15.91 17.46 17.46 0 0 0 2.61 9.2z" fill="#501b8d" opacity=".5"></path></svg></svg> <!----></g></g> <g transform="translate(67,0)"><g data-gra="path-name" fill-rule="" class="tp-name iconsvg-namesvg"><g transform="scale(1)"><g><path d="M29.26-45.45L41.64-2.73 25.9-0.7 23.99-7.87 16.76-7.87 15.17-0.7-1.02-2.29 11.62-44.56 29.26-45.45ZM18.09-17.58L22.85-17.58 20.44-28.63 18.09-17.58ZM72.93-44.62L72.93-44.62 71.16-31.23Q70.24-31.48 69.32-31.58 68.4-31.67 67.48-31.67L67.48-31.67Q65.13-31.67 63-31.06 60.87-30.44 59.24-29.17 57.6-27.9 56.64-25.99 55.67-24.09 55.67-21.52L55.67-21.52Q55.67-19.87 56.19-18.66 56.72-17.46 57.67-16.66 58.62-15.87 59.92-15.49 61.22-15.11 62.78-15.11L62.78-15.11Q63.95-15.11 65.22-15.36 66.49-15.62 67.73-16.03 68.97-16.44 70.14-16.98 71.32-17.52 72.3-18.09L72.3-18.09 71.03-3.17Q69.79-2.54 68.35-2.05 66.9-1.56 65.38-1.19 63.86-0.83 62.33-0.63 60.81-0.44 59.41-0.44L59.41-0.44Q55.38-0.44 51.89-1.94 48.4-3.43 45.83-6.03 43.26-8.63 41.78-12.17 40.31-15.71 40.31-19.8L40.31-19.8Q40.31-25.23 41.86-30.04 43.42-34.85 46.43-38.47 49.45-42.08 53.91-44.18 58.37-46.27 64.17-46.27L64.17-46.27Q66.36-46.27 68.67-45.93 70.97-45.58 72.93-44.62ZM99.18-46.72L115.18-45.45 99.88-24.31 112.77-1.84 98.04 0.76 88.39-12.95 87.88 1.4 74.68 1.9 75.7-46.72 90.49-45.89 89.34-31.55 99.18-46.72Z" transform="translate(1.0199999809265137, 46.720001220703125)"></path></g> <!----> <!----> <!----> <!----> <!----> <!----> <g data-gra="path-name-1" fill="#333" transform="translate(0,51.62000274658203)"><g transform="scale(1.03473)"><path d="M12.34-7.56L12.34-7.56 11.78-1.67 0.61-0.8Q0.69-5.43 0.79-10 0.89-14.58 1.03-19.21L1.03-19.21 7.93-19.21Q7.63-16.31 7.35-13.41 7.07-10.51 6.95-7.56L6.95-7.56Q7.58-7.54 8.19-7.54 8.8-7.54 9.42-7.54L9.42-7.54Q10.16-7.54 10.88-7.55 11.6-7.56 12.34-7.56ZM13.07-18.31L20.13-18.68 18.67-0.61 13.07-0.32 13.07-18.31ZM36.77-11.62L36.92-2.71Q36.3-1.92 35.39-1.34 34.47-0.76 33.42-0.37 32.37 0.01 31.27 0.21 30.17 0.4 29.18 0.4L29.18 0.4Q27.25 0.4 25.63-0.29 24.02-0.98 22.84-2.2 21.67-3.41 21-5.06 20.34-6.7 20.34-8.6L20.34-8.6Q20.34-10.04 20.67-11.43 21-12.82 21.62-14.04 22.24-15.27 23.13-16.3 24.02-17.33 25.14-18.07 26.27-18.81 27.61-19.23 28.95-19.64 30.48-19.64L30.48-19.64Q31.05-19.64 31.7-19.59 32.35-19.54 32.99-19.43 33.63-19.32 34.24-19.12 34.85-18.92 35.36-18.63L35.36-18.63 34.99-13.56Q34.24-13.84 33.46-13.94 32.67-14.04 31.91-14.04L31.91-14.04Q30.85-14.04 29.93-13.71 29-13.39 28.32-12.78 27.64-12.17 27.24-11.29 26.84-10.42 26.84-9.31L26.84-9.31Q26.84-8.62 27.03-7.98 27.21-7.34 27.59-6.84 27.97-6.34 28.53-6.04 29.1-5.73 29.84-5.73L29.84-5.73Q30.34-5.73 30.88-5.86 31.42-6 31.8-6.32L31.8-6.32 31.86-7.35 28.67-7.4 28.83-11.38Q30.81-11.45 32.79-11.5 34.76-11.54 36.77-11.62L36.77-11.62ZM53.26-18.92L53.68 0 47.05 0.32 47-5.81 43.94-5.81 43.76 0 37.81 0 38.32-18.65 44.63-18.36 44.24-8.84 47.18-8.84 47.21-19.08 53.26-18.92ZM54.5-18.95L68.97-18.97 68.83-13.35 64.88-13.19 63.87-0.61 58.27-0.32 58.3-12.9 54.35-12.68 54.5-18.95ZM69.8-18.31L76.86-18.68 75.4-0.61 69.8-0.32 69.8-18.31ZM89.56-18.81L95.82-19.03 94.87-1.03 87.91-0.4 84.2-10.03 83.61-0.21 77.64-0.21 78.12-19.03 84.76-19.34 89.35-9.79 89.56-18.81ZM112.75-11.62L112.91-2.71Q112.29-1.92 111.37-1.34 110.46-0.76 109.41-0.37 108.36 0.01 107.26 0.21 106.16 0.4 105.16 0.4L105.16 0.4Q103.24 0.4 101.62-0.29 100-0.98 98.83-2.2 97.65-3.41 96.99-5.06 96.33-6.7 96.33-8.6L96.33-8.6Q96.33-10.04 96.66-11.43 96.99-12.82 97.61-14.04 98.22-15.27 99.11-16.3 100-17.33 101.13-18.07 102.26-18.81 103.6-19.23 104.94-19.64 106.46-19.64L106.46-19.64Q107.03-19.64 107.68-19.59 108.33-19.54 108.98-19.43 109.62-19.32 110.23-19.12 110.84-18.92 111.34-18.63L111.34-18.63 110.97-13.56Q110.23-13.84 109.44-13.94 108.65-14.04 107.9-14.04L107.9-14.04Q106.83-14.04 105.91-13.71 104.99-13.39 104.31-12.78 103.62-12.17 103.22-11.29 102.83-10.42 102.83-9.31L102.83-9.31Q102.83-8.62 103.01-7.98 103.2-7.34 103.58-6.84 103.95-6.34 104.52-6.04 105.08-5.73 105.83-5.73L105.83-5.73Q106.33-5.73 106.87-5.86 107.4-6 107.79-6.32L107.79-6.32 107.84-7.35 104.66-7.4 104.82-11.38Q106.79-11.45 108.77-11.5 110.75-11.54 112.75-11.62L112.75-11.62Z" transform="translate(-0.6100000143051147, 19.639999389648438)"></path></g></g></g></g> <!----></g></g></svg>